<svg width="48" height="48" viewBox="0 0 48 48" fill="none" xmlns="http://www.w3.org/2000/svg">
<circle cx="24" cy="24" r="24" fill="#0F7C7C"/>
<g clip-path="url(#clip0_161_267)">
<path d="M26.3549 36H20.261V27.5158H17.6719V21.8906H20.261V18.117C20.261 14.744 23.005 12 26.3778 12H30.3505V18.0941H27.3351C26.7947 18.0941 26.3549 18.5338 26.3549 19.0741V21.8904H28.944V27.5158H26.3549V36ZM21.6672 34.5938H24.9487V26.1096H27.5378V23.2969H24.9487V19.0743C24.9487 17.7583 26.0193 16.6879 27.3351 16.6879H28.9442V13.4062H26.3778C23.7805 13.4062 21.6672 15.5195 21.6672 18.1168V23.2967H19.0781V26.1096H21.6672V34.5938Z" fill="white"/>
</g>
<defs>
<clipPath id="clip0_161_267">
<rect width="24" height="24" fill="white" transform="translate(12 12)"/>
</clipPath>
</defs>
</svg>
