<svg width="48" height="48" viewBox="0 0 48 48" fill="none" xmlns="http://www.w3.org/2000/svg">
<circle cx="24" cy="24" r="24" fill="#0F7C7C"/>
<path d="M30.7474 36H17.2526C14.3564 36 12 33.6436 12 30.7474V17.2526C12 14.3564 14.3564 12 17.2526 12H30.7474C33.6436 12 36 14.3564 36 17.2526V30.7474C36 33.6436 33.6436 36 30.7474 36ZM17.2526 13.4062C15.1317 13.4062 13.4062 15.1317 13.4062 17.2526V30.7474C13.4062 32.8683 15.1317 34.5938 17.2526 34.5938H30.7474C32.8683 34.5938 34.5938 32.8683 34.5938 30.7474V17.2526C34.5938 15.1317 32.8683 13.4062 30.7474 13.4062H17.2526Z" fill="white"/>
<path d="M24.0004 31.2366C20.0101 31.2366 16.7637 27.9901 16.7637 23.9999C16.7637 20.0096 20.0101 16.7632 24.0004 16.7632C27.9906 16.7632 31.2371 20.0096 31.2371 23.9999C31.2371 27.9901 27.9906 31.2366 24.0004 31.2366ZM24.0004 18.1694C20.7854 18.1694 18.1699 20.7849 18.1699 23.9999C18.1699 27.2148 20.7854 29.8303 24.0004 29.8303C27.2153 29.8303 29.8308 27.2148 29.8308 23.9999C29.8308 20.7849 27.2153 18.1694 24.0004 18.1694Z" fill="white"/>
<path d="M31.4037 17.523C31.2457 17.523 31.0857 17.4829 30.9392 17.3983C30.7235 17.2738 30.5693 17.0728 30.5049 16.8323C30.4404 16.5917 30.4734 16.3403 30.5979 16.1246C30.7224 15.9091 30.9234 15.7549 31.164 15.6905C31.4045 15.6258 31.6557 15.659 31.8714 15.7835C32.0871 15.908 32.2414 16.1091 32.3059 16.3497C32.3703 16.5901 32.3372 16.8413 32.2127 17.057C32.0402 17.3558 31.7262 17.523 31.4037 17.523Z" fill="white"/>
</svg>
