<svg width="18" height="24" viewBox="0 0 18 24" fill="none" xmlns="http://www.w3.org/2000/svg">
<path d="M0.103568 10.2774C0.229581 11.294 0.478543 12.3686 0.843551 13.4713C1.34442 14.9845 2.05198 16.5047 2.94672 17.9897C4.04961 19.8203 5.44301 21.6049 7.0882 23.2937C7.51922 23.7362 8.09107 23.98 8.69837 23.98C9.30567 23.98 9.87748 23.7362 10.3086 23.2937C11.9537 21.6049 13.3472 19.8203 14.45 17.9898C15.3447 16.5048 16.0523 14.9846 16.5532 13.4713C16.9182 12.3687 17.1671 11.2941 17.2931 10.2774C17.3797 9.57958 17.3798 9.12916 17.376 8.9702C17.3727 7.76852 17.143 6.60192 16.6934 5.50224C16.2563 4.43309 15.6308 3.47324 14.8344 2.64936C14.038 1.82548 13.1102 1.17846 12.0766 0.726239C11.0057 0.257647 9.86911 0.0200806 8.69833 0.0200806C7.5276 0.0200806 6.391 0.257687 5.3201 0.726239C4.28655 1.17846 3.35873 1.82548 2.56232 2.64936C1.76586 3.47324 1.14045 4.43309 0.703303 5.50224C0.253705 6.60188 0.0240966 7.76856 0.0207222 8.9702C0.0169213 9.12912 0.0170765 9.57954 0.103568 10.2774ZM9.13812 22.0737C9.01637 22.1986 8.85735 22.2611 8.69833 22.2611C8.53932 22.2611 8.38029 22.1986 8.25859 22.0737C1.44565 15.0798 1.68201 9.00189 1.68224 8.997V8.99696C1.68224 4.98843 4.82346 1.73889 8.69833 1.73889C12.5732 1.73889 15.7144 4.98843 15.7144 8.99692V8.99696C15.7146 9.00189 15.951 15.0798 9.13812 22.0737Z" fill="#C2811D"/>
<path d="M8.69824 24C8.08578 24 7.50912 23.7542 7.07442 23.3079C5.42814 21.618 4.03381 19.8322 2.9301 18.0003C2.0347 16.5142 1.32645 14.9926 0.825068 13.4778C0.459673 12.3738 0.2104 11.2979 0.0841929 10.2799C-0.00229814 9.58193 -0.00264718 9.13111 0.00119255 8.96966C0.00456687 7.76582 0.234719 6.5964 0.685287 5.49439C1.12344 4.4228 1.75029 3.46078 2.54845 2.63513C3.34665 1.80941 4.27661 1.16095 5.3124 0.707723C6.38578 0.238128 7.52495 0 8.69824 0C9.87161 0 11.0107 0.238128 12.084 0.707763C13.1199 1.16095 14.0498 1.80945 14.848 2.63517C15.6461 3.46086 16.273 4.42284 16.7112 5.49443C17.1617 6.59644 17.3919 7.76586 17.3953 8.97014C17.3991 9.13135 17.3987 9.58261 17.3122 10.28C17.186 11.2981 16.9368 12.374 16.5714 13.4778C16.0701 14.9925 15.3618 16.5141 14.4663 18.0004C13.3627 19.8323 11.9683 21.618 10.3221 23.3079C9.88732 23.7542 9.31066 24 8.69824 24ZM8.69824 0.0401226C7.53014 0.0401226 6.3961 0.277167 5.32757 0.744716C4.29639 1.1959 3.37058 1.84147 2.57595 2.66354C1.78136 3.48549 1.15726 4.44322 0.721085 5.51004C0.272573 6.60712 0.0434296 7.77127 0.0400553 8.97022C0.0362156 9.13119 0.0365648 9.5796 0.122746 10.2748C0.248604 11.2901 0.497256 12.3634 0.861837 13.4648C1.36228 14.9767 2.06922 16.4955 2.9631 17.9791C4.06519 19.8084 5.45765 21.5917 7.1018 23.2795C7.52917 23.7183 8.09618 23.9599 8.69832 23.9599C9.30042 23.9599 9.86742 23.7183 10.2948 23.2794C11.939 21.5917 13.3314 19.8083 14.4335 17.9791C15.3274 16.4954 16.0344 14.9766 16.5348 13.4647C16.8993 12.3635 17.148 11.2903 17.2738 10.2748C17.36 9.58016 17.3604 9.13131 17.3566 8.97062C17.3532 7.77123 17.1241 6.60708 16.6755 5.51C16.2393 4.44318 15.6152 3.48549 14.8206 2.6635C14.026 1.84147 13.1002 1.19586 12.0691 0.744676C11.0004 0.277167 9.86637 0.0401226 8.69824 0.0401226ZM8.69824 22.2811C8.52723 22.2811 8.3662 22.2125 8.24484 22.0879C1.4613 15.1241 1.66 9.05652 1.66279 8.99606C1.66279 4.98383 4.8189 1.71885 8.69828 1.71885C12.5777 1.71885 15.7338 4.98379 15.7338 8.99694C15.7362 9.05857 15.7838 10.5523 14.9989 12.9227C14.5382 14.314 13.8844 15.7168 13.0556 17.0923C12.02 18.8111 10.7065 20.4918 9.15175 22.0879C9.03028 22.2125 8.8692 22.2811 8.69824 22.2811ZM8.69824 1.75894C4.84023 1.75894 1.70154 5.0059 1.70154 8.99694C1.70088 9.01295 1.64891 10.5397 2.43582 12.9142C2.89577 14.3021 3.54841 15.7017 4.37562 17.074C5.40941 18.7891 6.72038 20.4664 8.27214 22.0594C8.38625 22.1765 8.53755 22.241 8.69824 22.241C8.85893 22.241 9.01027 22.1765 9.12433 22.0594C10.6773 20.4652 11.989 18.7866 13.0232 17.0701C13.8505 15.697 14.503 14.2968 14.9626 12.9083C15.5886 11.0172 15.7153 9.52339 15.6949 8.99774C15.6949 5.00594 12.5562 1.75894 8.69824 1.75894Z" fill="#C2811D"/>
<path d="M12.545 4.78578C12.0459 4.26948 11.4642 3.86392 10.8162 3.58041C10.1444 3.28648 9.4318 3.13742 8.6981 3.13742C7.9644 3.13742 7.25176 3.28648 6.58 3.58041C5.93198 3.86396 5.35035 4.26952 4.85126 4.78578C4.35218 5.30208 3.96014 5.9038 3.68604 6.57413C3.40186 7.26905 3.25781 8.00626 3.25781 8.76526C3.25781 9.52426 3.40186 10.2615 3.68604 10.9564C3.96014 11.6268 4.35214 12.2285 4.85126 12.7447C5.35035 13.261 5.93198 13.6666 6.58 13.9502C7.2518 14.244 7.9644 14.3931 8.6981 14.3931C9.4318 14.3931 10.1444 14.244 10.8162 13.9502C11.4642 13.6666 12.0458 13.261 12.5449 12.7447C13.044 12.2285 13.4361 11.6268 13.7102 10.9564C13.9943 10.2615 14.1383 9.52426 14.1383 8.76526C14.1383 8.00626 13.9943 7.26905 13.7102 6.57413C13.4361 5.9038 13.0441 5.30208 12.545 4.78578ZM8.6981 12.6743C6.61118 12.6743 4.91937 10.9242 4.91937 8.7653C4.91937 6.60638 6.61118 4.85631 8.6981 4.85631C10.785 4.85631 12.4768 6.60642 12.4768 8.76534C12.4768 10.9243 10.785 12.6743 8.6981 12.6743Z" fill="#C2811D"/>
<path d="M8.69792 14.4132C7.96166 14.4132 7.2465 14.2636 6.57226 13.9687C5.92187 13.684 5.33819 13.2771 4.8374 12.759C4.3366 12.241 3.94316 11.6371 3.66802 10.9643C3.38287 10.267 3.23828 9.52714 3.23828 8.76533C3.23828 8.00352 3.38287 7.26374 3.66802 6.56637C3.94313 5.89356 4.33656 5.28975 4.8374 4.77165C5.33823 4.2535 5.92195 3.84654 6.57226 3.56199C7.24646 3.26701 7.96163 3.11743 8.69792 3.11743C9.43414 3.11743 10.1493 3.26701 10.8236 3.56199C11.474 3.84658 12.0577 4.25354 12.5585 4.77165C13.0593 5.28975 13.4528 5.89356 13.7279 6.56637C14.013 7.26374 14.1576 8.00356 14.1576 8.76533C14.1576 9.5271 14.013 10.2669 13.7279 10.9643C13.4527 11.6371 13.0593 12.2409 12.5585 12.759C12.0577 13.277 11.474 13.6841 10.8236 13.9687C10.1494 14.2636 9.43418 14.4132 8.69792 14.4132ZM8.69792 3.15747C7.96686 3.15747 7.25674 3.30597 6.58735 3.59886C5.94165 3.88141 5.36208 4.28552 4.86478 4.79997C4.36751 5.31439 3.97687 5.91394 3.7037 6.58198C3.42057 7.27438 3.27703 8.00894 3.27703 8.76533C3.27703 9.52172 3.42057 10.2563 3.7037 10.9486C3.97687 11.6167 4.36755 12.2163 4.86478 12.7306C5.36204 13.245 5.94157 13.6492 6.58735 13.9317C7.25678 14.2246 7.96686 14.3731 8.69792 14.3731C9.42899 14.3731 10.1391 14.2246 10.8085 13.9317C11.4542 13.6491 12.0338 13.2451 12.5311 12.7306C13.0283 12.2162 13.419 11.6166 13.6921 10.9486C13.9753 10.2563 14.1188 9.52168 14.1188 8.76533C14.1188 8.00898 13.9753 7.27438 13.6921 6.58198C13.419 5.91398 13.0284 5.31443 12.5311 4.79997C12.0338 4.28552 11.4542 3.88141 10.8085 3.59886C10.139 3.30597 9.42899 3.15747 8.69792 3.15747ZM8.69792 12.6944C6.60364 12.6944 4.8998 10.9318 4.8998 8.76529C4.8998 6.59879 6.60364 4.83624 8.69792 4.83624C10.7922 4.83624 12.496 6.59883 12.496 8.76533C12.496 10.9318 10.7922 12.6944 8.69792 12.6944ZM8.69792 4.87637C6.62501 4.87637 4.93859 6.62094 4.93859 8.76529C4.93859 10.9097 6.62501 12.6543 8.69792 12.6543C10.7708 12.6543 12.4573 10.9097 12.4573 8.76533C12.4573 6.62094 10.7708 4.87637 8.69792 4.87637Z" fill="#C2811D"/>
</svg>
