<svg width="24" height="24" viewBox="0 0 24 24" fill="none" xmlns="http://www.w3.org/2000/svg">
<path d="M14.2516 14.1263C14.2085 14.1662 14.1659 14.2088 14.1253 14.2525C14.1108 14.2677 13.7237 14.6678 13.027 15.0537C12.1533 15.5378 11.2012 15.7831 10.1973 15.7831C10.1552 15.7831 10.1129 15.7827 10.0704 15.7818L7.92227 13.6337C7.4658 13.1771 6.85889 12.9258 6.21336 12.9258C5.56786 12.9258 4.96096 13.1771 4.50445 13.6336L0.72721 17.4109C-0.215053 18.3532 -0.215053 19.8864 0.727169 20.8287L2.30069 22.4022C2.89522 22.9967 3.75829 23.354 4.37762 23.5491C5.27138 23.8306 6.30217 23.9794 7.35851 23.9794C8.17687 23.9794 9.0176 23.8919 9.85735 23.7194C10.7865 23.5285 11.723 23.2313 12.6406 22.8362C14.731 21.9362 16.7477 20.523 18.6348 18.6359C20.2899 16.9808 21.5849 15.2199 22.4836 13.4019C23.2615 11.8285 23.7418 10.2205 23.9108 8.62274C24.0508 7.2995 23.9702 5.99025 23.6777 4.83641C23.5468 4.31997 23.377 3.84623 23.1731 3.42835C22.9491 2.96921 22.6894 2.59016 22.401 2.30183L20.8275 0.728346C20.3711 0.271962 19.7641 0.0205688 19.1186 0.0205688C18.4731 0.0205688 17.8662 0.271962 17.4097 0.728428L13.6325 4.50567C12.6903 5.44793 12.6903 6.98114 13.6325 7.92344L15.7808 10.0717C15.8016 11.0645 15.5834 12.0085 15.1304 12.8832C14.7236 13.6684 14.2705 14.1082 14.2516 14.1263ZM14.8786 5.75177L18.6559 1.97454C18.7837 1.84676 18.9512 1.78287 19.1186 1.78287C19.2861 1.78287 19.4536 1.84676 19.5814 1.97454L21.1548 3.54806C22.2946 4.68787 23.9461 10.8323 17.3886 17.3898C13.6175 21.1608 9.98307 22.2171 7.35851 22.2171C5.41915 22.2171 4.03116 21.6404 3.54684 21.1561L1.97332 19.5825C1.71777 19.3269 1.71777 18.9126 1.97332 18.657L5.75056 14.8798C5.87833 14.7521 6.0458 14.6881 6.21327 14.6881C6.38075 14.6881 6.54822 14.7521 6.67603 14.8798L9.12452 17.3283C9.23432 17.4381 9.37978 17.5052 9.53454 17.5179C9.76146 17.5367 9.98204 17.5455 10.1973 17.5455C13.3623 17.5455 15.2449 15.6373 15.4167 15.4517C15.4276 15.4399 15.4387 15.4288 15.4504 15.418C15.6487 15.2345 17.8114 13.1002 17.5167 9.53584C17.5039 9.38104 17.4369 9.23562 17.327 9.12578L14.8786 6.67729C14.6231 6.4217 14.6231 6.00736 14.8786 5.75177Z" fill="#023838"/>
</svg>
