<svg width="17" height="16" viewBox="0 0 17 16" fill="none" xmlns="http://www.w3.org/2000/svg">
<path d="M16.0946 5.28409C15.8613 5.07889 15.5741 4.94661 15.264 4.90155L11.4672 4.34986L9.76926 0.909443C9.63056 0.62845 9.41598 0.396114 9.14874 0.237637C8.9008 0.0906399 8.61668 0.0129089 8.32703 0.0129089C8.03738 0.0129089 7.75323 0.0906122 7.50532 0.237637C7.23808 0.396114 7.02353 0.628422 6.88483 0.909443L5.18689 4.34988L1.39016 4.90155C1.08004 4.94661 0.79279 5.07889 0.559486 5.28409C0.343056 5.47444 0.18137 5.72066 0.0918549 5.99615C0.00236742 6.27161 -0.0115467 6.56585 0.051634 6.84707C0.119766 7.15019 0.274398 7.42607 0.498823 7.64479L3.24616 10.3228L2.59759 14.1042C2.51723 14.5728 2.64622 15.0492 2.9515 15.4113C3.25905 15.7761 3.70779 15.9853 4.18264 15.9853C4.44125 15.9853 4.70009 15.9211 4.93115 15.7996L8.32706 14.0143L11.723 15.7996C11.954 15.9211 12.2128 15.9853 12.4715 15.9853C12.9463 15.9853 13.395 15.7761 13.7026 15.4113C14.0079 15.0492 14.1369 14.5728 14.0565 14.1042L13.408 10.3228L16.1553 7.64479C16.3797 7.42604 16.5344 7.15019 16.6025 6.84707C16.6657 6.56585 16.6518 6.27161 16.5623 5.99615C16.4727 5.72069 16.311 5.47447 16.0946 5.28409ZM15.3281 6.7962L12.294 9.75379C12.1942 9.85102 12.1487 9.99111 12.1723 10.1284L12.8885 14.3045C12.9354 14.5781 12.7181 14.8003 12.4715 14.8003C12.4064 14.8003 12.3393 14.7848 12.2744 14.7507L8.52404 12.779C8.46238 12.7466 8.39472 12.7304 8.32709 12.7304C8.25945 12.7304 8.19179 12.7466 8.13013 12.779L4.37973 14.7507C4.31492 14.7848 4.24775 14.8003 4.18269 14.8003C3.93606 14.8003 3.71871 14.5781 3.76563 14.3045L4.48189 10.1284C4.50546 9.99111 4.45992 9.85102 4.36017 9.75379L1.32598 6.7962C1.07478 6.55136 1.2134 6.12475 1.56053 6.07429L5.75364 5.465C5.89148 5.44498 6.01065 5.35839 6.0723 5.23347L7.94753 1.43389C8.02515 1.2766 8.1761 1.19796 8.32706 1.19796C8.47804 1.19796 8.62896 1.27663 8.70656 1.43389L10.5818 5.23347C10.6434 5.35837 10.7626 5.44498 10.9005 5.465L15.0935 6.07429C15.4407 6.12475 15.5793 6.55136 15.3281 6.7962Z" fill="#C2811D"/>
</svg>
