<svg width="48" height="48" viewBox="0 0 48 48" fill="none" xmlns="http://www.w3.org/2000/svg">
<circle cx="24" cy="24" r="24" fill="#FEB970"/>
<g clip-path="url(#clip0_161_263)">
<path d="M31.2139 24.8391L35.9856 17.625H28.6677L28.5311 18.1544C28.1804 19.5134 27.5223 21.3552 26.3788 22.4125C26.2375 22.543 26.1036 22.6479 25.9804 22.732V17.625H19.6067V19.036H20.2022V22.2339C19.4877 21.6055 18.5899 20.4064 18.3548 18.254L18.2862 17.625H12L12.2159 18.4995C12.9921 21.6445 14.1564 24.221 15.6769 26.1573C16.9182 27.7382 18.3966 28.8989 20.0709 29.607C21.5661 30.2395 22.9429 30.3945 23.9335 30.3945C24.8446 30.3945 25.4289 30.2633 25.478 30.2519L26.0154 30.1267L26.0432 28.1883L28.4366 30.2704H36.0001L31.2139 24.8391ZM24.6756 25.1286L24.621 28.9511C23.8331 29.0213 22.2722 29.024 20.5495 28.2771C19.1109 27.6533 17.833 26.6317 16.7514 25.2407C15.5127 23.6477 14.5272 21.5634 13.8164 19.036H17.0403C17.7381 23.083 20.5457 24.1302 20.6707 24.1747L21.6132 24.5108V19.036H24.5696V24.5178L25.3119 24.479C25.4022 24.4742 26.2219 24.4088 27.19 23.5792C28.2899 22.6364 29.1507 21.1097 29.7524 19.036H33.3606L29.4411 24.9615L32.876 28.8592H28.9643L24.6756 25.1286Z" fill="white"/>
</g>
<defs>
<clipPath id="clip0_161_263">
<rect width="24" height="24" fill="white" transform="translate(12 12)"/>
</clipPath>
</defs>
</svg>
